<svg width="1562" height="1429" xmlns="http://www.w3.org/2000/svg" xmlns:xlink="http://www.w3.org/1999/xlink" xml:space="preserve" overflow="hidden"><defs><clipPath id="clip0"><rect x="1381" y="527" width="1562" height="1429"/></clipPath></defs><g clip-path="url(#clip0)" transform="translate(-1381 -527)"><path d="M2706.67 684.228 2699.8 672.954C2642.11 577.92 2537.82 520.624 2427.85 527.567 2413.75 528.469 2399.73 530.399 2385.91 533.341 2285.95 554.754 2198.95 630.335 2162.89 727.156 2141.68 784.074 2135.76 849.619 2095.51 894.816 2043.16 953.658 1954.23 955.48 1876.06 953.039 1797.89 950.599 1708.89 952.696 1656.78 1011.74 1624.15 1048.73 1613.77 1101.31 1616.39 1150.84 1623.26 1281.97 1714.77 1399.2 1830.96 1457.5 1947.15 1515.79 2083.99 1520.98 2211.18 1495.3 2389.39 1459.39 2558.82 1360.78 2660.68 1208.45 2762.53 1056.12 2788.11 848.622 2706.67 684.228Z" fill="#00AEC8" fill-rule="evenodd" fill-opacity="0.101961"/><path d="M2943 1909.5C2943 1909.77 2610.33 1910 2200.03 1910 1789.74 1910 1457 1909.77 1457 1909.5 1457 1909.23 1789.6 1909 2200.03 1909 2610.47 1909 2943 1909.23 2943 1909.5Z" fill="#263238" fill-rule="evenodd"/><path d="M2618.07 1036.18C2611.52 1035.25 2604.99 1038.01 2601.14 1043.36 2598 1048.46 2596.58 1054.44 2597.11 1060.4 2596.92 1066.07 2598.56 1071.65 2601.77 1076.35 2606.7 1082.14 2613.68 1085.84 2621.27 1086.7 2628.39 1087.53 2635.62 1086.63 2642.31 1084.08 2643.98 1077.18 2642.31 1068.48 2640.64 1061.06 2639.58 1055.41 2637.19 1050.1 2633.69 1045.53 2629.82 1040.61 2624.26 1037.28 2618.07 1036.18Z" fill="#455A64" fill-rule="evenodd"/><path d="M2770 1020C2769.83 1020.81 2769.6 1021.6 2769.31 1022.38 2768.76 1024.1 2768 1026.33 2767.11 1029.26 2765.11 1035.08 2762.35 1043.51 2759.11 1054.04 2755.87 1064.58 2752.22 1077.14 2748.77 1091.22 2745.33 1105.3 2741.68 1120.89 2738.44 1137.35 2735.2 1153.8 2732.99 1169.64 2731.13 1184.06 2729.27 1198.48 2728.07 1211.6 2727.27 1222.48 2726.48 1233.35 2725.93 1242.34 2725.69 1248.47 2725.52 1251.39 2725.41 1253.77 2725.31 1255.56 2725.32 1256.38 2725.22 1257.2 2725.03 1258 2724.99 1257.17 2724.99 1256.35 2725.03 1255.52 2725.03 1253.73 2725.03 1251.39 2725.03 1248.43 2725.03 1242.3 2725.41 1233.39 2726.07 1222.41 2726.72 1211.43 2727.86 1198.31 2729.51 1183.85 2731.17 1169.4 2733.61 1153.56 2736.71 1137.04 2739.82 1120.51 2743.61 1104.89 2747.05 1090.81 2750.5 1076.73 2754.46 1064.13 2757.91 1053.67 2761.35 1043.2 2764.21 1034.77 2766.45 1029.02 2767.48 1026.26 2768.35 1024.06 2768.97 1022.41 2769.22 1021.57 2769.56 1020.76 2770 1020Z" fill="#263238" fill-rule="evenodd"/><path d="M2633 1069C2633.51 1069.59 2633.94 1070.24 2634.31 1070.93L2637.74 1076.58C2640.76 1081.51 2644.92 1088.82 2649.83 1097.95 2654.74 1107.08 2660.13 1118.14 2665.93 1130.62 2671.74 1143.09 2677.3 1157.05 2682.69 1171.97 2688.09 1186.89 2692.48 1201.29 2696.16 1214.53 2699.83 1227.76 2702.58 1239.79 2704.57 1249.95 2706.56 1260.12 2708 1268.39 2708.86 1274.07L2709.79 1280.69C2709.95 1281.45 2710.02 1282.22 2710 1283 2709.73 1282.28 2709.55 1281.53 2709.45 1280.76 2709.1 1279.07 2708.69 1276.9 2708.18 1274.21 2707.18 1268.49 2705.57 1260.26 2703.33 1250.09 2701.1 1239.92 2698.22 1228 2694.58 1214.84 2690.94 1201.67 2686.33 1187.27 2681.01 1172.45 2675.69 1157.63 2669.95 1143.68 2664.42 1131.1 2658.89 1118.52 2653.5 1107.53 2648.73 1098.36 2643.96 1089.19 2639.97 1081.79 2637.12 1076.75 2635.78 1074.38 2634.72 1072.41 2633.89 1070.93 2633.52 1070.32 2633.22 1069.68 2633 1069Z" fill="#263238" fill-rule="evenodd"/><path d="M2756.26 1238C2758.33 1238 2760 1238 2760 1238L2760 1246C2760 1246 2758.33 1246 2756.26 1246L2681.74 1246C2679.67 1246 2678 1246 2678 1246L2678 1238C2678 1238 2679.67 1238 2681.74 1238Z" fill="#FB9300" fill-rule="evenodd"/><path d="M2787.66 1325.05C2784.94 1294.92 2761.18 1290.79 2756.67 1287.59 2755.69 1286.87 2754.81 1286.02 2754.05 1285.07 2751.24 1281.48 2749.75 1277.03 2749.82 1272.47L2749.82 1242 2690.13 1242 2690.13 1272.47C2690.21 1277.03 2688.73 1281.47 2685.93 1285.07 2685.17 1286.03 2684.28 1286.88 2683.28 1287.59 2678.73 1290.79 2654.97 1294.92 2652.28 1325.05 2649.59 1355.17 2639.5 1423.69 2657.31 1445.55 2673.74 1465.76 2689.79 1466.97 2716.48 1467L2723.57 1467C2750.26 1467 2766.31 1465.76 2782.74 1445.55 2800.48 1423.69 2790.42 1355.21 2787.66 1325.05Z" fill="#FB9300" fill-rule="evenodd"/><path d="M2759 1246C2759 1246.54 2741.31 1247 2719.5 1247 2697.69 1247 2680 1246.54 2680 1246 2680 1245.46 2697.69 1245 2719.5 1245 2741.31 1245 2759 1245.42 2759 1246Z" fill="#263238" fill-rule="evenodd"/><path d="M2805.94 997.372C2802.83 990.514 2796.35 985.861 2788.95 985.154 2781.69 984.529 2774.38 985.813 2767.75 988.882 2761.67 990.946 2756.33 994.805 2752.42 999.961 2748.46 1006.68 2747.91 1014.92 2750.93 1022.12 2753.96 1029.22 2758.78 1035.39 2764.89 1040 2773.52 1038.52 2782.26 1033.1 2789.73 1028.58 2795.26 1025.44 2799.99 1021.03 2803.53 1015.7 2807.06 1010.29 2807.96 1003.53 2805.94 997.372Z" fill="#455A64" fill-rule="evenodd"/><path d="M2614.16 1146.32C2611.28 1141.25 2611.28 1135.04 2614.16 1129.97 2617.05 1125.01 2621.17 1120.86 2626.12 1117.94 2630.2 1114.93 2635.09 1113.21 2640.16 1113 2646.22 1113.42 2651.72 1116.71 2654.95 1121.86 2658.09 1127 2659.83 1132.87 2660 1138.89 2654.53 1143.62 2648.25 1147.33 2641.45 1149.83 2636.96 1151.98 2632.03 1153.07 2627.04 1153 2621.94 1152.89 2617.18 1150.42 2614.16 1146.32Z" fill="#455A64" fill-rule="evenodd"/><path d="M2695.19 1109.29C2692.27 1104.24 2692.27 1098.03 2695.19 1092.98 2698.07 1088.01 2702.19 1083.87 2707.15 1080.97 2711.2 1077.94 2716.09 1076.2 2721.15 1076 2727.24 1076.43 2732.75 1079.73 2735.98 1084.88 2739.12 1090.02 2740.85 1095.89 2741 1101.9 2735.54 1106.63 2729.27 1110.33 2722.49 1112.83 2717.99 1115.02 2713.04 1116.1 2708.04 1115.99 2702.94 1115.89 2698.18 1113.41 2695.19 1109.29Z" fill="#455A64" fill-rule="evenodd"/><path d="M2801.54 1103.7C2805.13 1098.92 2806 1092.55 2803.81 1086.94 2801.63 1081.48 2798.12 1076.68 2793.62 1073.01 2789.94 1069.38 2785.29 1066.96 2780.27 1066.04 2774.16 1065.63 2768.22 1068.22 2764.27 1073.01 2760.47 1077.85 2757.97 1083.63 2757 1089.76 2761.79 1095.42 2767.55 1100.14 2773.99 1103.7 2778.19 1106.55 2783 1108.34 2788.02 1108.92 2793.07 1109.42 2798.06 1107.49 2801.54 1103.7Z" fill="#455A64" fill-rule="evenodd"/><path d="M2690.74 1061.18C2690.05 1055.36 2686.16 1050.43 2680.68 1048.43 2675.82 1047.4 2670.75 1048.24 2666.47 1050.77 2661.86 1052.81 2658.01 1056.24 2655.45 1060.6 2652.23 1067.21 2651.22 1074.7 2652.6 1081.94 2653.79 1088.45 2656.41 1094.62 2660.26 1100 2666.06 1099.07 2672.24 1094.42 2677.42 1090.38 2681.62 1087.32 2685.08 1083.35 2687.55 1078.76 2690.44 1073.39 2691.56 1067.24 2690.74 1061.18Z" fill="#455A64" fill-rule="evenodd"/><path d="M2726.07 1019.17C2719.52 1018.26 2713 1021.02 2709.14 1026.33 2706 1031.42 2704.59 1037.37 2705.1 1043.31 2704.91 1048.96 2706.55 1054.53 2709.76 1059.2 2714.67 1065.04 2721.65 1068.8 2729.27 1069.69 2736.39 1070.54 2743.62 1069.64 2750.31 1067.08 2751.98 1060.2 2750.31 1051.57 2748.64 1044.17 2747.58 1038.54 2745.2 1033.23 2741.69 1028.66 2737.85 1023.7 2732.28 1020.32 2726.07 1019.17Z" fill="#455A64" fill-rule="evenodd"/><path d="M2661.62 1072C2661.68 1074.96 2661.53 1077.93 2661.16 1080.87 2660.67 1087.96 2660.55 1095.07 2660.83 1102.17 2661.17 1109.27 2662.02 1116.34 2663.36 1123.31 2664.1 1126.16 2664.65 1129.07 2665 1132 2663.69 1129.34 2662.74 1126.51 2662.18 1123.58 2660.48 1116.6 2659.45 1109.47 2659.13 1102.27 2658.81 1095.08 2659.09 1087.87 2659.95 1080.73 2660.16 1077.76 2660.72 1074.83 2661.62 1072Z" fill="#263238" fill-rule="evenodd"/><path d="M2678 1161C2675.05 1156.53 2671.85 1152.21 2668.42 1148.09 2665.89 1145.3 2663.05 1142.8 2659.97 1140.64 2657.62 1138.99 2655.9 1138.37 2656 1138.09 2656.11 1137.82 2657.97 1138.09 2660.62 1139.57 2664.05 1141.49 2667.14 1143.97 2669.76 1146.89 2673.76 1150.75 2676.61 1155.63 2678 1161Z" fill="#263238" fill-rule="evenodd"/><path d="M2740.15 1100C2741.94 1103.83 2742.85 1108.08 2742.81 1112.38 2743.3 1116.65 2742.82 1120.98 2741.42 1125 2740.94 1125 2741.42 1119.31 2741.17 1112.48 2740.91 1105.65 2739.55 1100 2740.15 1100Z" fill="#263238" fill-rule="evenodd"/><path d="M2761 1084C2756.35 1092.65 2750.64 1100.71 2744 1108 2746.04 1103.52 2748.64 1099.31 2751.76 1095.48 2754.35 1091.3 2757.46 1087.44 2761 1084Z" fill="#263238" fill-rule="evenodd"/><path d="M2749.62 1083C2748.93 1079.37 2748.82 1075.64 2749.27 1071.97 2749.17 1068.25 2749.61 1064.55 2750.58 1061 2751.37 1068.34 2751.04 1075.78 2749.62 1083Z" fill="#263238" fill-rule="evenodd"/><path d="M2658.46 1378C2657.73 1374.27 2657.35 1370.48 2657.33 1366.67 2656.89 1357.47 2656.89 1348.25 2657.33 1339.05 2657.63 1333.7 2657.86 1328.69 2658.49 1323.89 2658.98 1319.69 2660.31 1315.64 2662.41 1312.01 2663.85 1309.56 2665.84 1307.53 2668.21 1306.07 2669.03 1305.46 2669.99 1305.09 2671 1305 2667.86 1306.8 2665.25 1309.45 2663.44 1312.67 2661.61 1316.22 2660.48 1320.12 2660.12 1324.13 2659.56 1328.65 2659.39 1333.8 2659.12 1339.15 2658.63 1349.82 2658.63 1359.53 2658.69 1366.54 2658.85 1370.36 2658.77 1374.19 2658.46 1378Z" fill="#263238" fill-rule="evenodd"/><path d="M2553.43 1911C2552.4 1910.99 2551.37 1910.83 2550.38 1910.52 2546 1909.22 2543 1905.2 2543 1900.62L2543 1779.72 2545.68 1779.72 2545.68 1900.62C2545.69 1904.86 2549.12 1908.28 2553.35 1908.27 2555.93 1908.26 2558.34 1906.95 2559.75 1904.78L2641.74 1779 2644 1780.48 2561.98 1906.26C2560.14 1909.21 2556.91 1911 2553.43 1911Z" fill="#263238" fill-rule="evenodd"/><path d="M2879.53 1911C2876.07 1910.96 2872.86 1909.18 2870.99 1906.26L2789 1780.48 2791.23 1779 2873.25 1904.78C2875.52 1908.33 2880.23 1909.36 2883.77 1907.1 2885.98 1905.68 2887.31 1903.24 2887.29 1900.62L2887.29 1779.72 2890 1779.72 2890 1900.62C2890 1905.2 2886.98 1909.24 2882.59 1910.52 2881.6 1910.83 2880.57 1910.99 2879.53 1911Z" fill="#263238" fill-rule="evenodd"/><path d="M2520 1465 2942 1465 2942 1792 2520 1792Z" fill="#AE7461" fill-rule="evenodd"/><path d="M2815.76 1612.66C2815.76 1612.66 2815.76 1611.93 2815.76 1610.55 2815.76 1609.18 2815.76 1607.11 2815.76 1604.42 2815.76 1599.02 2815.76 1591.09 2815.76 1580.83 2815.76 1560.16 2815.76 1530.47 2815.55 1493.03L2815.93 1493.52 2544.48 1493.76 2544.48 1493.76 2545.03 1493.03C2545.03 1534.61 2545.03 1574.94 2545.03 1612.66L2544.51 1611.97 2738.74 1612.28 2795.45 1612.48 2810.68 1612.48 2814.63 1612.48 2810.82 1612.48 2795.69 1612.48 2739.08 1612.66 2544.51 1613 2544 1613 2544 1612.31C2544 1574.6 2544 1534.26 2544 1492.69L2544 1492 2544.21 1492 2815.66 1492.24 2816 1492.24 2816 1492.69C2816 1530.23 2816 1560.16 2815.79 1580.76 2815.79 1591.09 2815.79 1598.88 2815.79 1604.25 2815.79 1606.87 2815.79 1608.9 2815.79 1610.28 2815.79 1611.66 2815.76 1612.66 2815.76 1612.66Z" fill="#263238" fill-rule="evenodd"/><path d="M2815.76 1753.79C2815.76 1753.79 2815.76 1753.07 2815.76 1751.69 2815.76 1750.31 2815.76 1748.25 2815.76 1745.56 2815.76 1740.15 2815.76 1732.23 2815.76 1721.97 2815.76 1701.3 2815.76 1671.61 2815.55 1634.17L2815.93 1634.65 2543.79 1634.89 2543.79 1634.89 2544.34 1634.17C2544.34 1675.74 2544.34 1716.08 2544.34 1753.79L2543.52 1752.97 2738.23 1753.28 2795.09 1753.48 2810.36 1753.48 2814.38 1753.48 2810.5 1753.48 2795.33 1753.48 2738.57 1753.69 2543.52 1754 2543 1754 2543 1753.31C2543 1715.6 2543 1675.26 2543 1633.69L2543 1633 2543.52 1633 2815.66 1633.24 2816 1633.24 2816 1633.69C2816 1671.23 2816 1701.2 2815.79 1721.8 2815.79 1732.13 2815.79 1739.88 2815.79 1745.25 2815.79 1747.9 2815.79 1749.9 2815.79 1751.31 2815.79 1752.73 2815.76 1753.79 2815.76 1753.79Z" fill="#263238" fill-rule="evenodd"/><path d="M2624 1492 2632.82 1505 2733.94 1505 2744 1492 2624 1492Z" fill="#263238" fill-rule="evenodd"/><path d="M2624 1634 2632.89 1646 2734.86 1646 2745 1634 2624 1634Z" fill="#263238" fill-rule="evenodd"/><path d="M2845 1465 2942 1465 2942 1792 2845 1792Z" fill="#6F4439" fill-rule="evenodd"/><path d="M1702.21 1779.17 1708.3 1891.16C1708.3 1891.16 1596.86 1935.01 1596 1956L1813 1951.9 1810.59 1777Z" fill="#263238" fill-rule="evenodd"/><path d="M2402.63 1604.13 2493 1911 2467.6 1911 2343 1602 2402.63 1604.13Z" fill="#6F4439" fill-rule="evenodd"/><path d="M2181.63 1604.13 2272 1908 2246.6 1908 2122 1602 2181.63 1604.13Z" fill="#6F4439" fill-rule="evenodd"/><path d="M1907.58 1604.13 1826 1908 1851.29 1908 1967 1602 1907.58 1604.13Z" fill="#AE7461" fill-rule="evenodd"/><path d="M2171.9 1604.13 2095 1908 2120.16 1908 2231 1602 2171.9 1604.13Z" fill="#AE7461" fill-rule="evenodd"/><path d="M1858.7 1471.09C1858.7 1471.09 1851.82 1378.68 1865.75 1352.28 1879.67 1325.88 2015.13 1272.39 2015.13 1272.39 2015.13 1272.39 2107.96 1125.8 2170.09 1094.79 2232.22 1063.78 2474.61 1068.04 2509.85 1115.93 2545.09 1163.82 2505.62 1289.27 2487.3 1365.38L2421.04 1551.4 2402.75 1604 1898.17 1604Z" fill="#FB9300" fill-rule="evenodd"/><path d="M2487.62 1115C2487.76 1115.31 2487.89 1115.64 2488 1115.96 2488.2 1116.58 2488.55 1117.55 2488.89 1118.82 2489.65 1121.4 2490.65 1125.22 2491.65 1130.2 2494.45 1144.38 2495.5 1158.84 2494.78 1173.27 2494.14 1183.3 2492.99 1193.29 2491.34 1203.2 2489.68 1213.93 2487.72 1225.39 2485.52 1237.6 2481.14 1261.68 2475.95 1288.37 2470.09 1316.55L2470.09 1316.99 2469.71 1317.16C2462.14 1320.98 2454.15 1325.01 2445.96 1328.96 2397 1352.82 2346.74 1373.92 2295.42 1392.15 2275.73 1399.03 2259.65 1404.37 2248.49 1407.84L2235.61 1411.76 2232.17 1412.73 2231 1413 2232.1 1412.55 2235.54 1411.42 2248.32 1407.19C2259.41 1403.47 2275.42 1398.11 2295.04 1390.95 2346.13 1372.29 2396.2 1350.98 2445.06 1327.11 2453.26 1323.15 2461.24 1319.09 2468.82 1315.31L2468.34 1315.93C2474.22 1287.75 2479.49 1261.13 2483.97 1237.01 2486.21 1224.97 2488.24 1213.55 2489.92 1202.86 2491.61 1192.16 2493.09 1182.22 2493.61 1173.1 2494.42 1158.74 2493.56 1144.33 2491.03 1130.17 2490.13 1125.18 2489.24 1121.36 2488.58 1118.78 2488.27 1117.58 2488.03 1116.62 2487.82 1115.86 2487.72 1115.58 2487.65 1115.29 2487.62 1115Z" fill="#263238" fill-rule="evenodd"/><path d="M1924 1547C1926.57 1556.33 1928.55 1565.79 1929.91 1575.35 1931.88 1584.81 1933.25 1594.38 1934 1604 1931.42 1594.68 1929.45 1585.21 1928.09 1575.65 1926.12 1566.19 1924.75 1556.62 1924 1547Z" fill="#263238" fill-rule="evenodd"/><path d="M2185.03 1602C2184.55 1602 2190.19 1566.68 2197.62 1523.35 2205.05 1480.01 2211.37 1444.93 2211.96 1445 2212.54 1445.07 2206.83 1480.28 2199.41 1523.65 2191.98 1567.03 2185.54 1602.07 2185.03 1602Z" fill="#263238" fill-rule="evenodd"/><path d="M1577.2 1628 1507.87 1715.63C1507.87 1715.63 1395.33 1674.68 1381 1689.65L1546.3 1830 1660 1697.88Z" fill="#263238" fill-rule="evenodd"/><path d="M1565.53 1751.56C1568.08 1755.42 1567.24 1760.55 1563.6 1763.46 1559.72 1766.08 1554.42 1765.28 1551.52 1761.64 1548.85 1757.53 1549.78 1752.11 1553.67 1749.07 1557.6 1746.83 1564.38 1748.2 1565.99 1752.29" fill="#E0E0E0" fill-rule="evenodd"/><path d="M1547.03 1830 1558 1816.27 1394.8 1686.79C1394.8 1686.79 1384.69 1683.74 1381 1689.64Z" fill="#455A64" fill-rule="evenodd"/><path d="M1506.07 1712.14C1505.44 1712.98 1509.03 1716.72 1510.73 1722.64 1512.43 1728.55 1511.69 1733.68 1512.69 1733.99 1513.69 1734.29 1516.35 1728.65 1514.16 1721.55 1511.96 1714.45 1506.51 1711.29 1506.07 1712.14Z" fill="#FFFFFF" fill-rule="evenodd"/><path d="M1482.51 1705.08C1481.57 1705.69 1484.13 1709.94 1483.94 1715.53 1483.75 1721.11 1481.27 1725.3 1482.21 1725.93 1483.15 1726.57 1487.92 1722.59 1488 1715.56 1488.07 1708.53 1483.26 1704.35 1482.51 1705.08Z" fill="#FFFFFF" fill-rule="evenodd"/><path d="M1455.13 1716.88C1455.75 1717.66 1460.55 1714.65 1462.35 1708.58 1464.15 1702.51 1461.74 1697.65 1460.76 1698.02 1459.79 1698.39 1460.15 1702.64 1458.6 1707.6 1457.05 1712.56 1454.38 1716.14 1455.13 1716.88Z" fill="#FFFFFF" fill-rule="evenodd"/><path d="M1524.01 1694.39C1523.73 1695.39 1528.47 1697.46 1532.86 1701.63 1537.24 1705.81 1539.63 1710.33 1540.65 1709.98 1541.66 1709.64 1540.65 1703.84 1535.45 1698.98 1530.26 1694.11 1524.15 1693.39 1524.01 1694.39Z" fill="#FFFFFF" fill-rule="evenodd"/><path d="M1728.48 1478.79C1728.48 1486.77 1693 1852.25 1693 1852.25L1812.86 1866C1812.86 1866 1842.68 1681.66 1847.18 1647.69 1851.67 1613.73 1867.32 1552.84 1867.32 1552.84L2123 1527.5C2123 1527.5 1997.58 1351.76 1985.4 1351 1973.22 1350.25 1728.48 1478.79 1728.48 1478.79Z" fill="#008B44" fill-rule="evenodd"/><path d="M1521 1680.3C1521 1680.3 1735.89 1389.22 1748.3 1373.98 1760.7 1358.74 1775 1342.57 1819.81 1342.57 1864.63 1342.57 1985.87 1351.15 1985.87 1351.15L2049.93 1322 2282.59 1357.81C2282.59 1357.81 2291.18 1468.33 2275.92 1494.08 2260.66 1519.83 2170.07 1526.45 2151 1527.42 2131.93 1528.38 1836.52 1488.31 1836.52 1488.31L1836.52 1488.31C1836.52 1488.31 1778.64 1568.58 1750.84 1599.41 1731.05 1621.42 1625.3 1757 1625.3 1757Z" fill="#00A650" fill-rule="evenodd"/><path d="M1624.89 1760 1518 1681.12 1519 1679.75C1521.16 1676.82 1734.12 1387.94 1746.39 1372.8 1758 1358.49 1772.47 1340.67 1819.25 1340.67 1862.28 1340.67 1976.97 1348.69 1985.02 1349.24L2049.15 1320 2049.66 1320 2283.55 1356.08 2283.55 1357.43C2283.89 1362 2292.01 1469.02 2276.68 1495.02 2260.11 1522.99 2161.54 1528.7 2150.33 1529.42 2131.74 1530.49 1858.64 1493.34 1836.54 1490.34 1830.28 1499.01 1777.35 1572.08 1751.34 1601.01 1731.81 1622.75 1626.92 1757.42 1625.85 1758.76ZM1522.78 1680.4 1624.24 1755.25C1635.24 1741.12 1730.27 1619.27 1748.86 1598.6 1776.36 1568.09 1833.86 1488.21 1834.44 1487.39L1835.03 1486.56 1836.06 1486.56C1839.01 1486.97 2131.64 1526.67 2150.23 1525.74 2154.63 1525.5 2257.88 1520.07 2273.79 1493.17 2287.71 1469.67 2281.25 1371.77 2280.32 1359.01L2049.63 1323.58 1985.63 1352.75 1985.19 1352.75C1983.98 1352.75 1863.52 1344.15 1819.25 1344.15 1774.12 1344.15 1760.24 1361.35 1749.07 1375.11 1737.28 1389.49 1538.9 1658.56 1522.78 1680.4Z" fill="#A9D18E" fill-rule="evenodd"/><path d="M1812 1450C1817.23 1456.17 1821.98 1462.7 1826.21 1469.53 1831 1476.04 1835.28 1482.88 1839 1490 1833.76 1483.84 1829.01 1477.31 1824.79 1470.47 1820 1463.96 1815.72 1457.12 1812 1450Z" fill="#455A64" fill-rule="evenodd"/><path d="M1775.46 1880.34C1779.87 1881.59 1782.63 1885.95 1781.87 1890.45 1780.77 1894.89 1776.38 1897.7 1771.87 1896.85 1767.2 1895.52 1764.3 1890.88 1765.15 1886.11 1766.54 1881.94 1772.36 1878.61 1776.3 1880.59" fill="#E0E0E0" fill-rule="evenodd"/><path d="M1813 1951.7 1812.07 1934 1604.45 1944.57C1604.45 1944.57 1594.93 1949.07 1596.1 1956Z" fill="#455A64" fill-rule="evenodd"/><path d="M1705.01 1889.93C1705.01 1890.99 1710.38 1891.37 1715.64 1894.68 1720.9 1897.98 1723.79 1902.39 1724.75 1901.97 1725.71 1901.56 1724.03 1895.43 1717.56 1891.65 1711.1 1887.86 1704.7 1888.96 1705.01 1889.93Z" fill="#FFFFFF" fill-rule="evenodd"/><path d="M1682.01 1900.43C1681.76 1901.42 1686.51 1903.07 1690.28 1907.29 1694.05 1911.51 1695.21 1916.07 1696.27 1916 1697.32 1915.93 1697.92 1910.19 1693.13 1904.98 1688.35 1899.77 1682.01 1899.47 1682.01 1900.43Z" fill="#FFFFFF" fill-rule="evenodd"/><path d="M1669.81 1927.99C1670.77 1928.21 1672.15 1922.63 1669.29 1916.62 1666.44 1910.6 1661.49 1908.26 1661.04 1909.2 1660.6 1910.14 1663.76 1913.3 1665.99 1918.31 1668.23 1923.31 1668.74 1927.89 1669.81 1927.99Z" fill="#FFFFFF" fill-rule="evenodd"/><path d="M1706.04 1864.91C1706.53 1865.85 1711.43 1864.34 1717.55 1864.6 1723.68 1864.87 1728.43 1866.65 1728.96 1865.75 1729.48 1864.84 1724.87 1861.25 1717.69 1861.01 1710.52 1860.78 1705.51 1864.1 1706.04 1864.91Z" fill="#FFFFFF" fill-rule="evenodd"/><path d="M2140.75 1069.32 2148.38 1139.04 2060.98 1314.61C2060.98 1314.61 2009.3 1331.81 1991 1350.69L2032.86 1352.51C2093.23 1355.03 2151.3 1376.36 2198.99 1413.52 2219.59 1429.69 2236.32 1447.16 2239.41 1463.05 2248.51 1509.82 2262.45 1502.6 2262.45 1502.6L2315.43 1434.33 2352.52 1360.45 2427 1071.08 2355.13 1031.52 2338.99 1008 2232.54 1022.86 2211.35 1043.8Z" fill="#00AEC8" fill-rule="evenodd"/><path d="M1963.82 1256.44 2008.52 1237.71 2078.78 1139.03C2078.78 1139.03 2111.38 1073.78 2140.68 1069.2 2169.98 1064.62 2148.24 1138.99 2148.24 1138.99L2103.2 1267.08 2030.53 1318 1980.43 1313.63 1948 1286.08Z" fill="#00AEC8" fill-rule="evenodd"/><path d="M2148 1094C2147.81 1094.79 2147.54 1095.56 2147.21 1096.3 2146.59 1097.95 2145.73 1100.09 2144.7 1102.73 2142.43 1108.55 2139.23 1116.49 2135.34 1126.39 2127.46 1146.4 2116.9 1174.15 2105.34 1204.83 2093.78 1235.5 2083.02 1263.28 2074.83 1283.09 2070.77 1293.03 2067.36 1301.04 2064.92 1306.54L2062.1 1312.83C2061.82 1313.6 2061.45 1314.32 2061 1315 2061.17 1314.21 2061.42 1313.44 2061.76 1312.7 2062.41 1311.08 2063.24 1308.91 2064.3 1306.27 2066.57 1300.49 2069.77 1292.51 2073.66 1282.61 2081.54 1262.63 2092.1 1234.88 2103.66 1204.17 2115.22 1173.47 2125.95 1145.72 2134.14 1125.94 2138.23 1116.01 2141.64 1107.96 2144.08 1102.49L2146.9 1096.17C2147.19 1095.41 2147.56 1094.68 2148 1094Z" fill="#263238" fill-rule="evenodd"/><path d="M2235 1091.17C2233.97 1089.66 2233.08 1088.06 2232.35 1086.38 2230.61 1082.91 2228.4 1078.47 2225.54 1073.05L2226.7 1073.05C2224.39 1078.26 2221.7 1084.44 2218.09 1091 2214.32 1098.21 2209.45 1104.77 2203.67 1110.44L2202 1112 2202.17 1109.71 2202.17 1109.33C2203.46 1091.41 2205.57 1075.27 2207.38 1063.68 2208.33 1057.88 2209.18 1053.26 2209.82 1049.96 2210.07 1048.28 2210.47 1046.61 2211.02 1045 2211.01 1046.7 2210.84 1048.4 2210.51 1050.07 2210.03 1053.54 2209.38 1058.3 2208.63 1063.95 2207.07 1075.58 2205.23 1091.73 2203.94 1109.57L2203.94 1109.95 2202.48 1109.22C2208.1 1103.67 2212.88 1097.3 2216.66 1090.3 2220.27 1083.85 2223.09 1077.74 2225.54 1072.6L2226.16 1071.31 2226.7 1072.6C2229.18 1078.08 2231.22 1082.67 2232.82 1086.17 2233.69 1087.77 2234.42 1089.45 2235 1091.17Z" fill="#263238" fill-rule="evenodd"/><path d="M2348 1037C2347.74 1037.52 2347.4 1037.99 2347.01 1038.41L2343.93 1042.19C2341.19 1045.63 2337.08 1050.1 2332.01 1055.7 2318.62 1070.22 2304.45 1083.99 2289.56 1096.96 2281.62 1103.83 2273.85 1110.3 2266.59 1115.97L2265.29 1117 2265.29 1115.35C2265.07 1104.18 2263.28 1093.1 2259.95 1082.45L2260.8 1082.76 2247.79 1090.25C2246.26 1091.21 2244.66 1092.04 2243 1092.76 2244.39 1091.62 2245.88 1090.59 2247.45 1089.7L2260.22 1081.76 2260.8 1081.38 2261.04 1082.07C2264.68 1092.79 2266.66 1104 2266.93 1115.32L2265.6 1114.66C2272.79 1108.96 2280.52 1102.53 2288.4 1095.62 2305.82 1080.42 2320.68 1065.64 2331.16 1054.71 2336.39 1049.24 2340.54 1044.7 2343.45 1041.61L2346.87 1038.17C2347.21 1037.74 2347.59 1037.35 2348 1037Z" fill="#263238" fill-rule="evenodd"/><path d="M2342.18 1017.77 2349.42 869.899C2354.03 823.61 2330.94 782.309 2284.57 779.007L2280.27 779.007C2236.97 778.44 2200.48 811.254 2196.42 854.423 2192.68 894.59 2189.03 938.987 2189 960.584 2189 1005.29 2233.49 1012.75 2233.49 1012.75 2233.49 1012.75 2232.32 1039.89 2231.56 1052.95L2231.56 1052.95 2240.91 1087Z" fill="#FFBF9D" fill-rule="evenodd"/><path d="M2233.48 1012.28C2254.16 1012.53 2274.47 1006.87 2292 996 2292 996 2277.54 1029.11 2233 1024.57Z" fill="#FF9A6C" fill-rule="evenodd"/><path d="M2209 894.597C2208.92 897.996 2211.69 900.832 2215.22 900.977 2218.66 901.264 2221.69 898.817 2221.99 895.511 2221.99 895.478 2221.99 895.441 2222 895.407 2222.1 892.014 2219.35 889.172 2215.82 889.026 2212.38 888.719 2209.33 891.15 2209.01 894.455 2209.01 894.502 2209.01 894.549 2209 894.597Z" fill="#263238" fill-rule="evenodd"/><path d="M2205.1 872.634C2205.91 873.493 2210.89 869.988 2217.88 870.091 2224.87 870.194 2229.99 873.7 2230.77 872.875 2231.54 872.05 2230.34 870.985 2228.1 869.438 2225.12 867.27 2221.52 866.067 2217.81 866.002 2214.16 865.95 2210.6 867.032 2207.63 869.094 2205.45 870.779 2204.71 872.256 2205.1 872.634Z" fill="#263238" fill-rule="evenodd"/><path d="M2269 896.061C2268.94 899.736 2271.69 902.796 2275.22 902.972 2278.64 903.304 2281.67 900.686 2281.99 897.129 2281.99 897.078 2282 897.027 2282 896.975 2282.08 893.301 2279.34 890.226 2275.82 890.028 2272.38 889.696 2269.33 892.328 2269.01 895.908 2269.01 895.959 2269 896.01 2269 896.061Z" fill="#263238" fill-rule="evenodd"/><path d="M2272.11 874.69C2272.91 875.579 2277.9 871.951 2284.88 872.058 2291.87 872.165 2296.99 875.615 2297.76 874.903 2298.54 874.192 2297.34 872.983 2295.13 871.347 2292.12 869.191 2288.53 868.021 2284.85 868.003 2281.21 867.929 2277.64 869.038 2274.67 871.169 2272.49 872.912 2271.69 874.299 2272.11 874.69Z" fill="#263238" fill-rule="evenodd"/><path d="M2247.1 927.703C2243.54 926.525 2239.85 925.792 2236.11 925.514 2234.42 925.306 2232.72 924.959 2232.49 923.743 2232.38 921.909 2232.81 920.085 2233.71 918.498 2235.4 914.225 2237.1 909.779 2239 905.089 2246.32 885.985 2251.68 870.353 2250.93 870.006 2250.18 869.658 2243.61 884.942 2236.28 904.013 2234.49 908.737 2232.89 913.218 2231.2 917.525 2230.08 919.648 2229.73 922.11 2230.22 924.473 2230.69 925.761 2231.73 926.741 2233.03 927.112 2233.98 927.38 2234.96 927.533 2235.95 927.564 2239.64 928.095 2243.39 928.141 2247.1 927.703Z" fill="#263238" fill-rule="evenodd"/><path d="M2271.07 853.194C2271.95 855.007 2278.55 853.194 2286.49 853.194 2294.44 853.194 2301.1 854.545 2301.95 852.661 2302.29 851.773 2300.97 850.138 2298.19 848.645 2294.52 846.775 2290.47 845.872 2286.39 846.014 2282.3 846.047 2278.28 847.106 2274.66 849.107 2271.95 850.635 2270.67 852.306 2271.07 853.194Z" fill="#263238" fill-rule="evenodd"/><path d="M2205.2 852.205C2206.58 853.668 2212.1 852.205 2219.01 852.427 2225.91 852.65 2231.44 853.7 2232.82 852.236 2233.41 851.536 2232.58 850.041 2230.13 848.641 2223.21 845.12 2214.81 845.12 2207.89 848.641 2205.41 850.009 2204.58 851.473 2205.2 852.205Z" fill="#263238" fill-rule="evenodd"/><path d="M2345.32 901.282C2346.08 900.943 2376.34 892.691 2374.95 922.844 2373.57 952.997 2343 945.391 2343 944.508 2343 943.625 2345.32 901.282 2345.32 901.282Z" fill="#FFBF9D" fill-rule="evenodd"/><path d="M2353.03 934.089C2353.03 934.089 2353.54 934.508 2354.39 934.961 2355.6 935.627 2357.03 935.777 2358.35 935.38 2361.57 934.298 2364.48 929.241 2364.86 923.66 2365.06 921.013 2364.67 918.355 2363.74 915.882 2363.25 913.894 2361.84 912.279 2359.98 911.557 2358.74 911.156 2357.41 911.732 2356.83 912.918 2356.39 913.755 2356.56 914.382 2356.39 914.418 2356.22 914.452 2355.74 913.859 2356.05 912.604 2356.26 911.843 2356.71 911.18 2357.33 910.72 2358.18 910.117 2359.23 909.88 2360.25 910.058 2362.73 910.692 2364.72 912.607 2365.5 915.115 2366.66 917.86 2367.16 920.849 2366.96 923.835 2366.48 930.043 2363.13 935.763 2358.72 936.844 2357.07 937.246 2355.33 936.862 2353.98 935.798 2353.03 934.856 2352.93 934.159 2353.03 934.089Z" fill="#FF9A6C" fill-rule="evenodd"/><path d="M2137.29 808.942C2137.88 807.195 2139.1 805.734 2140.72 804.851 2144.35 803.383 2148.31 802.909 2152.19 803.476 2161.9 803.713 2171.54 801.726 2180.37 797.666 2177.42 796.078 2174.74 794.022 2172.44 791.581 2167.41 786.531 2165.6 779.098 2167.74 772.295 2168.1 771.02 2169.02 769.978 2170.25 769.476 2172.27 768.96 2173.92 770.989 2175.22 772.57 2178.58 777.596 2184.42 780.381 2190.43 779.824 2194.52 779.741 2198.53 778.731 2202.17 776.867 2202.31 776.737 2202.43 776.599 2202.55 776.455L2207.43 771.951 2207.43 771.951C2219.37 761.054 2229.57 753.593 2239.9 749.95 2255.01 744.587 2280 743.074 2295.34 747.955 2310.69 752.837 2324.05 765.901 2325.52 781.921 2334.52 775.045 2347.6 775.561 2358 780.271L2358.27 780.271C2369.88 784.981 2376.06 797.734 2378.87 809.939 2379.04 810.626 2379.18 811.28 2379.32 811.967 2383.02 818.502 2388.24 824.054 2394.53 828.159 2395.66 828.881 2396.93 829.74 2397 831.081 2397.07 832.422 2395.93 833.419 2394.83 834.141 2391.89 835.997 2388.57 837.17 2385.12 837.578 2386.01 840.504 2387.16 843.344 2388.55 846.07 2389.79 848.373 2391.23 851.158 2389.99 853.427 2388.82 855.156 2386.7 855.978 2384.67 855.489 2382.71 854.956 2380.88 854.032 2379.28 852.774 2380.48 855.971 2381.65 859.202 2382.72 862.399 2378.41 862.932 2374.03 862.447 2369.95 860.99 2366.96 872.128 2364.18 892.927 2360.95 900.421 2352.85 900.215 2350.93 899.252 2346.77 900.421 2341.45 901.934 2343.03 911.388 2336.3 908.431 2332.87 906.918 2328.06 893.408 2327.03 889.798 2320.31 865.71 2318.82 840.459 2322.67 815.748 2318 810.31 2312.32 805.831 2305.95 802.547L2306.47 803.029C2294.18 798.182 2280.27 793.3 2268.22 798.663 2258.85 802.788 2253.05 812.105 2245.88 819.289 2233.59 832.831 2216.08 840.442 2197.81 840.191 2195.48 853.599 2194 875.601 2192.8 888.114L2183.19 862.502 2183.19 862.502C2182.4 860.99 2181.75 859.477 2181.13 857.964L2180.89 857.518 2180.89 857.518C2179.89 855.077 2178.93 852.636 2177.66 850.229L2177.66 850.229C2174.19 852.835 2169.26 852.127 2166.65 848.648 2164.57 845.857 2164.56 842.027 2166.64 839.229 2167.77 837.816 2169.12 836.585 2170.62 835.585 2167.56 838.455 2163.26 839.579 2159.19 838.575 2155.04 837.101 2152.39 833.037 2152.7 828.64 2153.17 825.718 2155.16 823.267 2157.92 822.211 2152.32 822.394 2146.79 820.909 2142.03 817.949 2139.01 815.921 2136.05 812.826 2137.29 808.942Z" fill="#263238" fill-rule="evenodd"/><path d="M2311 787C2312.54 788.33 2314 789.768 2315.34 791.297 2318.73 795.712 2320.9 800.927 2321.62 806.424 2322.22 810.186 2322.44 813.998 2322.28 817.804 2322.28 821.93 2321.59 826.296 2321.07 830.937 2320.45 835.785 2320.13 840.664 2320.09 845.549 2320.12 848.151 2320.35 850.751 2320.79 853.319 2321.06 856.062 2322.04 858.693 2323.63 860.951 2325.17 862.773 2327.54 863.684 2329.92 863.358 2332.15 863.028 2334.2 861.989 2335.78 860.401 2338.36 857.166 2340.03 853.309 2340.61 849.227L2339.67 849.227C2340.87 852.659 2342.58 855.891 2344.74 858.82 2346.83 861.546 2349.9 863.371 2353.31 863.908 2354.89 864.142 2356.5 863.928 2357.96 863.289 2359.34 862.67 2360.49 861.653 2361.26 860.367 2361.99 859.184 2362.38 857.833 2362.41 856.447 2362.38 855.186 2361.91 853.972 2361.09 853.009L2360.6 853.422C2363.15 856.581 2366.34 859.17 2369.97 861.02 2370.92 861.518 2371.91 861.945 2372.92 862.292 2373.27 862.447 2373.63 862.55 2374 862.602L2372.99 862.155C2372.33 861.845 2371.36 861.398 2370.15 860.711 2366.64 858.785 2363.56 856.162 2361.12 853.009L2360.6 853.422C2362.03 855.406 2362.03 858.073 2360.6 860.057 2359.9 861.209 2358.86 862.12 2357.62 862.67 2356.28 863.224 2354.82 863.402 2353.38 863.186 2350.21 862.636 2347.36 860.9 2345.43 858.338 2343.36 855.457 2341.71 852.294 2340.54 848.953L2339.95 847.509 2339.6 849.021C2339.03 852.92 2337.44 856.605 2334.99 859.714 2333.57 861.134 2331.73 862.062 2329.74 862.361 2327.73 862.656 2325.7 861.886 2324.4 860.332 2322.93 858.208 2322.03 855.746 2321.8 853.181 2321.36 850.672 2321.12 848.131 2321.1 845.583 2321.09 840.732 2321.4 835.888 2322 831.075 2322.49 826.434 2322.98 822.033 2323.11 817.873 2323.25 814.005 2322.99 810.134 2322.32 806.321 2321.51 800.738 2319.2 795.474 2315.62 791.091 2314.33 789.475 2312.77 788.09 2311 787Z" fill="#455A64" fill-rule="evenodd"/><path d="M2171 823.779 2171.34 824.119C2171.65 824.324 2172 824.63 2172.45 824.971 2173.02 825.441 2173.63 825.859 2174.27 826.231 2175.12 826.799 2176 827.314 2176.92 827.763 2182.8 830.712 2189.33 832.163 2195.92 831.986 2205.76 831.802 2215.34 828.771 2223.46 823.268 2233.24 816.519 2241.52 807.863 2247.8 797.831 2251.24 792.621 2254.17 787.241 2257.3 782.304 2260.19 777.489 2263.74 773.099 2267.87 769.262 2271.6 765.819 2276.15 763.35 2281.09 762.077 2283.34 761.562 2285.66 761.403 2287.97 761.6 2290.08 761.798 2292.15 762.278 2294.13 763.03 2297.55 764.365 2300.65 766.394 2303.22 768.989 2305.17 770.988 2306.77 773.287 2307.97 775.8 2308.9 777.986 2309.58 780.271 2310 782.61 2310 782.61 2310 782.61 2310 782.133 2310 781.656 2310 781.316 2310 780.771 2309.7 779.031 2309.21 777.329 2308.52 775.698 2307.33 773.191 2305.74 770.893 2303.8 768.887 2301.22 766.18 2298.07 764.055 2294.58 762.656 2292.53 761.859 2290.39 761.331 2288.21 761.089 2285.84 760.885 2283.45 761.031 2281.12 761.532 2275.98 762.792 2271.25 765.312 2267.35 768.853 2263.13 772.725 2259.49 777.172 2256.54 782.065 2253.37 787.037 2250.48 792.281 2247.01 797.593 2240.77 807.506 2232.57 816.076 2222.91 822.791 2214.98 828.206 2205.65 831.257 2196.03 831.577 2189.54 831.795 2183.1 830.477 2177.23 827.729 2175.08 826.527 2173 825.209 2171 823.779Z" fill="#455A64" fill-rule="evenodd"/><path d="M2168 804.02C2168.46 804.514 2168.98 804.933 2169.54 805.272 2171.01 806.336 2172.55 807.271 2174.16 808.07 2176.52 809.296 2178.98 810.294 2181.51 811.052 2187.73 812.933 2194.23 813.46 2200.63 812.598 2203.24 812.259 2205.82 811.67 2208.33 810.831 2210.03 810.301 2211.69 809.623 2213.29 808.806 2213.9 808.556 2214.47 808.225 2215 807.812 2215 807.812 2212.4 808.843 2208.16 810.058 2202.58 811.626 2196.81 812.201 2191.06 811.752 2187.91 811.468 2184.78 810.901 2181.72 810.058 2179.22 809.366 2176.79 808.453 2174.43 807.334 2170.39 805.419 2168.1 803.799 2168 804.02Z" fill="#455A64" fill-rule="evenodd"/><path d="M2247.02 948.067C2247.43 946.953 2254.45 950.189 2262.14 946.361 2269.83 942.533 2272.4 934.598 2273.42 935.016 2274.45 935.433 2274.04 937.313 2272.71 940.549 2270.9 944.75 2267.71 948.174 2263.68 950.224 2259.8 952.187 2255.32 952.539 2251.2 951.199 2248.32 950.12 2246.78 948.519 2247.02 948.067Z" fill="#263238" fill-rule="evenodd"/><path d="M2185 1602C2185 1599.84 2209.06 1445 2218.14 1425.25 2225.46 1409.62 2284.1 1397.41 2346.94 1372.11 2414.59 1344.89 2493 1343 2493 1343L2393.73 1571.55Z" fill="#FB9300" fill-rule="evenodd"/><path d="M2220.51 1273 2163 1277.28 2163 1332.24 2228 1340 2220.51 1273Z" fill="#FFBF9D" fill-rule="evenodd"/><path d="M2402.01 1058C2430.36 1069.63 2456.64 1094.75 2454.92 1127.3 2452.37 1175.47 2441.14 1279.07 2438.42 1305.73 2434.98 1340.56 2423.2 1369.87 2371.91 1371.8 2320.62 1373.72 2245.15 1361.27 2245.15 1361.27 2245.15 1361.27 2217.97 1375.03 2210.47 1359.93 2208.5 1355.9 2195 1274.8 2195 1274.8 2195 1273.7 2201.65 1265.99 2211.15 1261.25 2221.97 1255.91 2235.08 1259.94 2241.02 1270.43L2241.02 1270.43 2340.91 1267.16 2360.71 1173.23" fill="#00AEC8" fill-rule="evenodd"/><path d="M2360.84 1173.27C2360.79 1173.81 2360.71 1174.35 2360.6 1174.89 2360.36 1176.02 2360.05 1177.61 2359.67 1179.67 2358.82 1183.91 2357.55 1190 2355.94 1198.12 2352.51 1214.31 2347.78 1237.82 2341.68 1267.4L2341.68 1267.81 2341.23 1267.81 2271.3 1270.22 2251.32 1270.91 2246.18 1271.08 2243.61 1271.08 2241.58 1271.08C2241.58 1271.08 2240.32 1270.36 2240.9 1270.67L2240.9 1270.67 2240.56 1270.15C2238.8 1267.2 2236.37 1264.72 2233.46 1262.92 2227.42 1259.11 2219.89 1258.53 2213.34 1261.37 2210.01 1262.9 2206.89 1264.84 2204.05 1267.15 2202.59 1268.3 2201.19 1269.53 2199.87 1270.84 2199.22 1271.49 2198.56 1272.18 2197.98 1272.87 2197.4 1273.56 2197.4 1273.59 2197.12 1273.94 2196.85 1274.28 2196.58 1274.9 2196.61 1274.73L2196.61 1274.73C2199.76 1293.6 2203.12 1313.43 2206.89 1333.95 2207.85 1339.08 2208.81 1344.28 2209.77 1349.47 2210.29 1352.06 2210.8 1354.67 2211.42 1357.25 2211.59 1358.49 2212.05 1359.67 2212.76 1360.7 2213.07 1361.23 2213.42 1361.74 2213.82 1362.21L2215.19 1363.49C2219.64 1366.23 2225.02 1367.03 2230.07 1365.69 2235.38 1364.71 2240.54 1362.99 2245.39 1360.59L2245.66 1360.59 2245.94 1360.59C2266.16 1363.8 2287.52 1366.52 2309.32 1368.58 2324.37 1369.96 2339.31 1370.96 2354.05 1371.23 2368.79 1371.51 2383.39 1371.23 2396.97 1367.14 2403.64 1365.08 2409.89 1361.8 2415.37 1357.46 2420.72 1353.16 2425.08 1347.76 2428.16 1341.62 2433.7 1329.4 2436.89 1316.24 2437.55 1302.82 2443 1250.35 2447.84 1202.98 2451.26 1163.35 2452.12 1153.44 2452.84 1143.97 2453.42 1135.02 2453.73 1130.51 2454.01 1126.17 2453.94 1122 2453.94 1119.9 2453.53 1117.84 2453.35 1115.84 2453.18 1113.84 2452.57 1111.88 2452.15 1109.95 2450.27 1102.87 2447.14 1096.19 2442.9 1090.23 2439.35 1085.21 2435.27 1080.59 2430.73 1076.45 2424.36 1070.78 2417.33 1065.9 2409.79 1061.92 2407.22 1060.51 2405.19 1059.62 2403.82 1059L2401.8 1058C2401.8 1058 2402.52 1058.24 2403.89 1058.83 2405.26 1059.41 2407.32 1060.27 2409.96 1061.62 2417.61 1065.47 2424.75 1070.27 2431.21 1075.9 2435.81 1080.05 2439.97 1084.66 2443.62 1089.67 2447.94 1095.71 2451.16 1102.47 2453.11 1109.64 2453.53 1111.61 2454.01 1113.57 2454.38 1115.6 2454.76 1117.63 2454.9 1119.73 2455 1121.87 2455 1126.17 2455 1130.54 2454.55 1135.02 2454.01 1143.97 2453.32 1153.47 2452.53 1163.39 2449.31 1203.19 2444.51 1250.46 2439.16 1302.93 2438.48 1316.56 2435.22 1329.94 2429.57 1342.35 2426.37 1348.7 2421.87 1354.29 2416.37 1358.77 2410.7 1363.23 2404.26 1366.62 2397.38 1368.75 2383.67 1373.02 2368.62 1373.13 2353.91 1372.95 2339.21 1372.78 2324.13 1371.68 2309.04 1370.3 2287.21 1368.24 2265.85 1365.52 2245.56 1362.28L2246.11 1362.28C2241.09 1364.74 2235.76 1366.51 2230.27 1367.55 2224.75 1368.87 2218.93 1367.88 2214.16 1364.79L2212.58 1363.31C2212.11 1362.77 2211.7 1362.19 2211.35 1361.56 2210.56 1360.36 2210.03 1359.01 2209.81 1357.6 2209.16 1354.95 2208.68 1352.33 2208.16 1349.71 2207.2 1344.52 2206.24 1339.39 2205.28 1334.19 2201.62 1313.53 2198.43 1293.8 2195 1274.94L2195 1274.94 2195 1274.94C2195.12 1274.29 2195.41 1273.69 2195.82 1273.18 2196.13 1272.8 2196.44 1272.39 2196.75 1272.04 2197.06 1271.7 2198.05 1270.6 2198.74 1269.91 2200.09 1268.55 2201.54 1267.27 2203.06 1266.09 2206.02 1263.72 2209.27 1261.72 2212.72 1260.13 2223.41 1255.58 2235.8 1259.6 2241.82 1269.56L2242.2 1270.15 2242.2 1270.15C2242.78 1270.49 2241.38 1269.7 2241.55 1269.81L2243.4 1269.81 2246.01 1269.81 2251.15 1269.63 2271.13 1269.01 2341.06 1266.84 2340.51 1267.29C2346.82 1237.79 2351.82 1214.31 2355.28 1198.16L2359.3 1179.74C2359.78 1177.67 2360.12 1176.13 2360.36 1174.99Z" fill="#263238" fill-rule="evenodd"/><path d="M2395.99 1066.01C2396.2 1066.25 2392.51 1069.82 2387.29 1076.4 2380.68 1085.02 2375.22 1094.46 2371.04 1104.48 2366.87 1114.49 2363.88 1124.94 2362.13 1135.64 2360.73 1143.84 2360.46 1149.03 2360.11 1149 2359.96 1147.79 2359.96 1146.57 2360.11 1145.36 2360.11 1143.01 2360.42 1139.62 2360.91 1135.43 2362.33 1124.53 2365.2 1113.86 2369.43 1103.71 2371.79 1098.14 2374.55 1092.74 2377.72 1087.58 2380.32 1083.37 2383.2 1079.35 2386.35 1075.53 2388.53 1072.97 2390.85 1070.54 2393.31 1068.26 2394.88 1066.74 2395.99 1065.9 2395.99 1066.01Z" fill="#263238" fill-rule="evenodd"/><path d="M2383.94 1309C2383.64 1309 2382.89 1305.6 2380.55 1300.46 2374.51 1286.96 2363.42 1276.39 2349.68 1271.03 2344.42 1269.02 2340.93 1268.44 2341 1268.14 2341.07 1267.83 2341.88 1268.14 2343.48 1268.14 2345.72 1268.44 2347.94 1268.97 2350.08 1269.7 2353.3 1270.75 2356.39 1272.14 2359.3 1273.85 2362.88 1275.95 2366.21 1278.44 2369.23 1281.27 2372.2 1284.16 2374.85 1287.37 2377.13 1290.83 2378.97 1293.67 2380.5 1296.69 2381.71 1299.85 2382.55 1301.96 2383.19 1304.14 2383.6 1306.38 2383.98 1308.12 2384.08 1308.97 2383.94 1309Z" fill="#263238" fill-rule="evenodd"/><path d="M2245.99 1358C2245.71 1358 2247.1 1353.12 2248.25 1345.14 2249.7 1334.77 2250.29 1324.31 2250.02 1313.85 2249.86 1308.14 2249.4 1302.45 2248.63 1296.79 2247.95 1292.18 2246.97 1287.63 2245.68 1283.15 2243.42 1275.44 2240.71 1271.17 2241.02 1271 2241.81 1271.89 2242.47 1272.88 2243 1273.93 2243.73 1275.12 2244.36 1276.36 2244.88 1277.65 2245.68 1279.31 2246.35 1281.02 2246.9 1282.77 2248.43 1287.3 2249.59 1291.94 2250.37 1296.66 2251.26 1302.42 2251.78 1308.23 2251.93 1314.06 2252.25 1324.62 2251.47 1335.18 2249.6 1345.58 2249.04 1348.74 2248.3 1351.86 2247.38 1354.93 2247.04 1356 2246.57 1357.03 2245.99 1358Z" fill="#263238" fill-rule="evenodd"/><path d="M1857 1151.63C1857 1151.63 1860.89 1142.38 1868.62 1140.47 1868.62 1140.47 1907 1150.71 1918.21 1162.86 1918.21 1162.86 1920.44 1154.19 1941.04 1136.78 1956.35 1123.8 1975.51 1116.15 1995.61 1115L2016 1127.73 1934.27 1184.57 1909.95 1193Z" fill="#FAFAFA" fill-rule="evenodd"/><path d="M1857 1151.73C1857.37 1151.93 1857.71 1152.15 1858.03 1152.42L1860.89 1154.59 1871.64 1162.82 1910.45 1192.83 1909.79 1192.83 1934.11 1184.25 1934.11 1184.25 2014.8 1127.37 2015.73 1126.71 2015.73 1128.23C2008.84 1123.85 2001.95 1119.55 1995.31 1115.38L1995.79 1115.38C1978.87 1116.38 1962.57 1122.04 1948.68 1131.74 1942.53 1136.2 1936.77 1141.17 1931.46 1146.59 1928.91 1149.1 1926.52 1151.76 1924.29 1154.55 1922.16 1157.09 1920.41 1159.92 1919.09 1162.96L1918.68 1164.06 1917.89 1163.27C1913.84 1159.4 1909.19 1156.24 1904.11 1153.9 1899.63 1151.65 1895.03 1149.65 1890.34 1147.9 1881.73 1144.46 1874.29 1142.25 1868.36 1140.53L1868.54 1140.53C1864.65 1141.87 1861.36 1144.53 1859.24 1148.04 1858.63 1148.92 1858.07 1149.82 1857.55 1150.76 1857.17 1151.38 1857.03 1151.69 1857 1151.69 1857.07 1151.33 1857.19 1150.98 1857.38 1150.66 1857.84 1149.69 1858.35 1148.74 1858.93 1147.83 1861.09 1144.17 1864.5 1141.42 1868.54 1140.08L1868.74 1140.08C1874.7 1141.67 1882.21 1143.91 1890.89 1147.14 1895.58 1148.85 1900.18 1150.81 1904.66 1153 1909.86 1155.4 1914.64 1158.62 1918.82 1162.54L1917.61 1162.85C1918.94 1159.6 1920.76 1156.56 1923.02 1153.86 1925.26 1151.02 1927.66 1148.32 1930.22 1145.77 1935.63 1140.3 1941.5 1135.3 1947.75 1130.81 1961.93 1120.82 1978.63 1114.99 1995.96 1114L1996.2 1114 1996.44 1114 2016.86 1126.82 2018 1127.54 2016.9 1128.33 2015.97 1128.99 1934.8 1185.59 1934.8 1185.59 1934.8 1185.59 1910.41 1194 1910.07 1194 1909.76 1193.76 1871.12 1162.75 1860.79 1154.31 1858.1 1152.1C1857.72 1152.02 1857.35 1151.9 1857 1151.73Z" fill="#263238" fill-rule="evenodd"/><path d="M1844 1150.51 1846.3 1145.89 1903.69 1177.81C1903.69 1177.81 1922.55 1176.64 1922.92 1164.11 1922.92 1164.11 2016.9 1124.86 2019.19 1126.03 2021.49 1127.19 2172 1252.06 2172 1252.06L2036.06 1281 1973.15 1253.19Z" fill="#FB9300" fill-rule="evenodd"/><path d="M2019 1274C2018.69 1274.37 1992.49 1253.18 1960.33 1226.69 1928.16 1200.2 1902.69 1178.53 1903 1178.01 1903.31 1177.49 1929.51 1198.65 1961.5 1225.31 1993.49 1251.98 2019.31 1273.58 2019 1274Z" fill="#263238" fill-rule="evenodd"/><path d="M2056 1276C2055.65 1276.37 2025.88 1251.6 1989.48 1220.69 1953.09 1189.77 1924 1164.38 1924 1164 1924 1163.63 1954.09 1188.39 1990.52 1219.35 2026.95 1250.3 2056.17 1275.62 2056 1276Z" fill="#263238" fill-rule="evenodd"/><path d="M1923.22 1203.12C1922.84 1203.12 1909.94 1201.87 1906.87 1207.51 1903.8 1213.15 1903.42 1216.23 1904.66 1219.58 1906.77 1223.3 1909.26 1226.78 1912.11 1229.96L1914.32 1234.04C1912.01 1238.79 1911.29 1244.15 1912.25 1249.34 1913.82 1253.8 1916.74 1257.65 1920.6 1260.37 1920.6 1260.37 1921.63 1277.22 1931.84 1277.36 1933.36 1282.78 1938.24 1286.55 1943.85 1286.66 1953.23 1286.42 1957.96 1288.84 1968.38 1283.45 1978.79 1278.05 1990.87 1272.65 1993.52 1267.26 1996.18 1261.86 1986.9 1261.27 1986.9 1261.27 1986.9 1261.27 1991.94 1247.43 1975.69 1249.23 1975.69 1249.23 1977.52 1234.88 1967.1 1233.15 1956.59 1232.15 1946.03 1232 1935.5 1232.7L1927.15 1222.59C1927.15 1222.59 1933.22 1220.86 1933.57 1215.47 1933.91 1210.07 1928.12 1203.29 1923.22 1203.12Z" fill="#FFBF9D" fill-rule="evenodd"/><path d="M2135.01 1258.14C2133.98 1258.48 2121.5 1264.03 2113.19 1262.97 2104.87 1261.91 2040.41 1226.76 2031.06 1223.99 2021.71 1221.22 2005.77 1223.99 2017.32 1236.07 2028.86 1248.15 2064.12 1267.83 2064.81 1268.85 2065.67 1271.02 2066.37 1273.25 2066.9 1275.53L2030.85 1261.84C2030.85 1261.84 2004.5 1248.73 2000.34 1256.67 1996.18 1264.61 2002.44 1269.09 2009 1271.15 2015.56 1273.2 2022.74 1275.42 2022.74 1275.42 2022.74 1275.42 2030.37 1289.46 2037.97 1294.97 2045.56 1300.48 2080.27 1322.58 2086.08 1325.01 2091.88 1327.44 2163.01 1332.95 2164.39 1331.86 2165.76 1330.76 2164.39 1279.05 2164.39 1279.05L2139.44 1256.64Z" fill="#FFBF9D" fill-rule="evenodd"/></g></svg>